PathFileType	4	(X/Y/Z)	/Users/itak/Documents/Research/Walk-IL/dataset/trc/00487_00167.trc
DataRate	CameraRate	NumFrames	NumMarkers	Units	OrigDataRate	OrigDataStartFrame	OrigNumFrames
100.000000	100.000000	4	53	mm	100.000000	129	516
Frame#	Time	RPSI			LPSI			L3			STRN			T10			C7			CLAV			RBAK			LBAK			LSHO			LUPA			LAEL			LAOL			LWTS			LWPS			LFRA			LIFD			LHPS			LHTS			RSHO			RUPA			RAEL			RAOL			RWTS			RWPS			RFRA			RIFD			RHTS			RHPS			RBHD			LFHD			RFHD			LBHD			LHIP			RHIP			RASI			LASI			LKNE			LTHI			LANK			LTIP			LTOE			LMT1			LMT5			LHEE			RKNE			RTHI			RANK			RTIP			RTOE			RMT1			RMT5			RHEE			
		X1	Y1	Z1	X2	Y2	Z2	X3	Y3	Z3	X4	Y4	Z4	X5	Y5	Z5	X6	Y6	Z6	X7	Y7	Z7	X8	Y8	Z8	X9	Y9	Z9	X10	Y10	Z10	X11	Y11	Z11	X12	Y12	Z12	X13	Y13	Z13	X14	Y14	Z14	X15	Y15	Z15	X16	Y16	Z16	X17	Y17	Z17	X18	Y18	Z18	X19	Y19	Z19	X20	Y20	Z20	X21	Y21	Z21	X22	Y22	Z22	X23	Y23	Z23	X24	Y24	Z24	X25	Y25	Z25	X26	Y26	Z26	X27	Y27	Z27	X28	Y28	Z28	X29	Y29	Z29	X30	Y30	Z30	X31	Y31	Z31	X32	Y32	Z32	X33	Y33	Z33	X34	Y34	Z34	X35	Y35	Z35	X36	Y36	Z36	X37	Y37	Z37	X38	Y38	Z38	X39	Y39	Z39	X40	Y40	Z40	X41	Y41	Z41	X42	Y42	Z42	X43	Y43	Z43	X44	Y44	Z44	X45	Y45	Z45	X46	Y46	Z46	X47	Y47	Z47	X48	Y48	Z48	X49	Y49	Z49	X50	Y50	Z50	X51	Y51	Z51	X52	Y52	Z52	X53	Y53	Z53	

130	1.29	-1003.159362792969	948.72412109375	-95.59455871582031	-934.4061279296875	952.4532470703125	-220.6824188232422	-957.0067749023438	1055.371337890625	-141.7633361816406	-692.9065551757812	1244.205688476562	-41.05113220214844	-961.6281127929688	1180.50830078125	-154.4080810546875	-887.5614624023438	1447.821533203125	-128.3187103271484	-718.4952392578125	1357.098022460938	-65.91539001464844	-989.2960815429688	1337.84716796875	-60.76384735107422	-882.126708984375	1392.614624023438	-230.75048828125	-757.6658935546875	1405.868530273438	-263.17333984375	-723.6865844726562	1286.394165039062	-352.6329650878906	-675.8500366210938	1074.747924804688	-369.8002624511719	-774.3558349609375	1050.542358398438	-345.9734191894531	-593.6426391601562	892.9688720703125	-273.7825317382812	-607.1031494140625	867.5174560546875	-342.2017517089844	-640.3410034179688	991.9105224609375	-360.4309997558594	-560.1787719726562	734.4232788085938	-260.1722106933594	-583.5869140625	793.9183959960938	-329.7754821777344	-558.6079711914062	812.823486328125	-265.3125610351562	-887.1765747070312	1427.905151367188	45.82638931274414	-937.1796264648438	1375.955688476562	112.2045364379883	-978.4564208984375	1097.292236328125	188.171142578125	-1012.753051757812	1074.043212890625	134.3968811035156	-849.9295043945312	904.132080078125	201.431884765625	-931.4313354492188	882.19921875	232.7100677490234	-974.9009399414062	1039.727294921875	204.3938140869141	-831.4098510742188	750.3644409179688	224.7593231201172	-828.0510864257812	811.176513671875	228.0113677978516	-902.9729614257812	797.6863403320312	244.5247344970703	-782.675537109375	1647.815551757812	-15.17191123962402	-630.4014892578125	1624.384643554688	-153.7744750976562	-645.5413818359375	1634.086669921875	-24.09347152709961	-777.3626708984375	1642.538330078125	-192.6652679443359	-751.3294067382812	855.1610107421875	-256.0396728515625	-953.214111328125	856.4779052734375	91.29595947265625	-837.05810546875	903.9323120117188	73.06726837158203	-705.6033935546875	897.86279296875	-143.3852691650391	-732.2706909179688	437.1738891601562	-164.5834045410156	-708.627685546875	590.7592163085938	-194.2656555175781	-866.9217529296875	40.86505508422852	-193.8583374023438	-758.3991088867188	282.7644653320312	-177.8744964599609	-695.56982421875	44.14892959594727	-21.11278343200684	-776.4075317382812	50.03567123413086	-31.54416465759277	-723.3175659179688	46.64746856689453	-131.5781555175781	-936.1964721679688	50.89442443847656	-156.7721710205078	-827.5459594726562	498.7304992675781	181.8724670410156	-891.0250854492188	744.3887939453125	149.8686828613281	-1059.681274414062	141.4773101806641	48.17647171020508	-888.6832885742188	366.542724609375	159.9109497070312	-870.8566284179688	55.06624221801758	105.8399353027344	-895.9876098632812	87.64937591552734	45.26359558105469	-973.0319213867188	71.30161285400391	118.3084716796875	-1083.368041992188	175.5834045410156	-19.63737487792969	
131	1.3	-994.91455078125	948.0706176757812	-91.04090118408203	-927.5733642578125	952.6517333984375	-216.9408721923828	-949.5220947265625	1055.214233398438	-138.3571624755859	-685.5448608398438	1244.399658203125	-39.03845977783203	-954.19482421875	1180.289794921875	-151.2881317138672	-880.4837646484375	1447.783203125	-125.6681137084961	-711.1359252929688	1357.314331054688	-63.67643356323242	-981.8937377929688	1337.669799804688	-57.82043838500977	-875.2333374023438	1392.570190429688	-228.1285400390625	-750.9415283203125	1406.110961914062	-260.8348388671875	-716.6177978515625	1286.814331054688	-350.3550720214844	-667.3579711914062	1075.435791015625	-367.4034729003906	-765.6861572265625	1050.629760742188	-343.4112854003906	-583.7485961914062	894.4378662109375	-271.0799255371094	-597.08447265625	868.7311401367188	-339.3783264160156	-631.2166748046875	992.864013671875	-357.8849182128906	-549.1328125	736.181884765625	-257.0166625976562	-573.1300659179688	795.2781372070312	-326.7785034179688	-548.1577758789062	814.5734252929688	-262.4398803710938	-879.6592407226562	1427.900756835938	48.41064071655273	-929.479736328125	1375.961059570312	114.9037704467773	-970.4169921875	1097.535522460938	191.6848907470703	-1004.643676757812	1074.023681640625	137.9583740234375	-841.3162841796875	904.8103637695312	205.5323486328125	-922.7666625976562	882.6742553710938	236.7647247314453	-966.705078125	1040.013427734375	208.0491333007812	-822.3143920898438	751.1666259765625	229.3360595703125	-819.12255859375	812.0272827148438	232.3996124267578	-894.0402221679688	798.3001098632812	248.8526763916016	-775.3214111328125	1647.732666015625	-12.36858463287354	-623.2761840820312	1624.567749023438	-151.2740936279297	-638.2299194335938	1633.952392578125	-21.52198219299316	-770.3132934570312	1642.892822265625	-189.8678283691406	-745.1708984375	855.1962890625	-253.6995544433594	-943.904052734375	856.8838500976562	95.53137969970703	-828.1643676757812	904.5197143554688	75.96633148193359	-698.2807006835938	897.5697631835938	-141.3861083984375	-730.6776733398438	436.7202758789062	-164.5569000244141	-705.4346923828125	590.2865600585938	-193.3602905273438	-866.8240356445312	40.89318466186523	-193.79296875	-757.465576171875	282.4776611328125	-178.0012969970703	-695.4644165039062	44.07790374755859	-21.1290454864502	-776.1785888671875	50.13460922241211	-31.54875946044922	-723.2448120117188	46.41078186035156	-131.7457427978516	-936.0540771484375	50.97878265380859	-156.6768188476562	-813.10546875	500.1161193847656	186.2689514160156	-880.117431640625	745.5303344726562	154.1543273925781	-1033.462280273438	131.1645355224609	62.20815658569336	-870.2448120117188	365.2905578613281	167.4188690185547	-840.2618408203125	54.79743957519531	121.7608184814453	-867.09326171875	85.02925872802734	60.27391052246094	-943.3761596679688	66.79340362548828	133.6043701171875	-1059.004516601562	162.7755126953125	-6.234616756439209	
132	1.31	-986.8268432617188	947.4768676757812	-86.47938537597656	-920.721435546875	952.7640380859375	-213.0957489013672	-942.0123291015625	1054.946411132812	-134.8433837890625	-678.0880737304688	1244.455810546875	-36.95806884765625	-946.7658081054688	1179.965454101562	-148.0853271484375	-873.376708984375	1447.626098632812	-122.9332885742188	-703.7503662109375	1357.387573242188	-61.39825820922852	-974.4481201171875	1337.381713867188	-54.7719612121582	-868.326171875	1392.4072265625	-225.4418792724609	-744.2280883789062	1406.195434570312	-258.4495849609375	-709.6103515625	1287.056030273438	-348.0275268554688	-658.9667358398438	1075.951904296875	-364.9659729003906	-757.1309814453125	1050.57373046875	-340.8423156738281	-574.0951538085938	895.6600341796875	-268.37353515625	-587.2760009765625	869.7343139648438	-336.5693359375	-622.2366943359375	993.632568359375	-355.3250732421875	-538.4513549804688	737.6744384765625	-253.8834838867188	-563.0133666992188	796.4216918945312	-323.8386840820312	-538.0155639648438	816.0445556640625	-259.5724487304688	-872.0646362304688	1427.757202148438	51.08528137207031	-921.6854248046875	1375.837036132812	117.6992568969727	-962.3718872070312	1097.666748046875	195.2918701171875	-996.6007690429688	1073.9482421875	141.6468200683594	-832.8739624023438	905.2338256835938	209.5298004150391	-914.2655639648438	882.9676513671875	240.8366851806641	-958.5430297851562	1040.180541992188	211.7794799804688	-813.4977416992188	751.6875610351562	233.6211853027344	-810.4234008789062	812.5814819335938	236.5544586181641	-885.3296508789062	798.6786499023438	253.0693206787109	-768.0299072265625	1647.525146484375	-9.517660140991211	-616.1982421875	1624.692626953125	-148.7198028564453	-630.971435546875	1633.770874023438	-18.91365623474121	-763.3080444335938	1643.107177734375	-187.0298767089844	-739.0111083984375	855.1600341796875	-251.261474609375	-934.6735229492188	857.1290893554688	99.76576995849609	-819.31494140625	904.9430541992188	78.97216033935547	-691.0077514648438	897.18212890625	-139.2776794433594	-729.0537719726562	436.2739868164062	-164.4339141845703	-702.2179565429688	589.8076171875	-192.3351135253906	-866.6981811523438	40.94792556762695	-193.6980438232422	-756.4867553710938	282.21728515625	-178.052001953125	-695.349853515625	43.9994010925293	-21.10431671142578	-775.9796142578125	50.20876312255859	-31.53987121582031	-723.1676635742188	46.18672561645508	-131.8919677734375	-935.881591796875	51.08868026733398	-156.5651397705078	-799.1287841796875	501.2282104492188	190.2994232177734	-869.4711303710938	746.3677368164062	158.3119354248047	-1006.760070800781	121.0431289672852	76.37559509277344	-851.9631958007812	363.9569091796875	174.7668304443359	-809.978759765625	54.68033599853516	137.8968963623047	-838.2108154296875	82.42052459716797	75.52740478515625	-913.792724609375	62.59739303588867	149.1319885253906	-1033.9384765625	150.0410461425781	7.340501308441162	
133	1.32	-978.9108276367188	946.9467163085938	-81.90615081787109	-913.8602905273438	952.7858276367188	-209.1313323974609	-934.4887084960938	1054.568359375	-131.21337890625	-670.5416870117188	1244.377197265625	-34.80908203125	-939.3433227539062	1179.534423828125	-144.7903289794922	-866.2341918945312	1447.349853515625	-120.1097946166992	-696.3379516601562	1357.317260742188	-59.07657623291016	-966.9572143554688	1336.981689453125	-51.61223220825195	-861.3992309570312	1392.12548828125	-222.6838226318359	-737.5155639648438	1406.125610351562	-256.0070190429688	-702.649169921875	1287.121704101562	-345.6421813964844	-650.6830444335938	1076.296997070312	-362.4794921875	-748.6949462890625	1050.371459960938	-338.263671875	-564.6779174804688	896.6378173828125	-265.6581115722656	-577.6859741210938	870.52880859375	-333.77587890625	-613.4135131835938	994.2185668945312	-352.7459106445312	-528.1239624023438	738.8956298828125	-250.7947845458984	-553.2018432617188	797.35888671875	-320.9585571289062	-528.1693725585938	817.2400512695312	-256.7130126953125	-864.3917236328125	1427.476928710938	53.85528564453125	-913.7927856445312	1375.58740234375	120.5951614379883	-954.30712890625	1097.68408203125	198.9852142333984	-988.610595703125	1073.818359375	145.4537353515625	-824.5905151367188	905.3923950195312	213.4206237792969	-905.9180297851562	883.0867919921875	244.9246826171875	-950.4017333984375	1040.228881835938	215.5812225341797	-804.9876708984375	751.9141235351562	237.6507568359375	-801.960693359375	812.8233642578125	240.4959869384766	-876.846923828125	798.8322143554688	257.1968383789062	-760.7845458984375	1647.192626953125	-6.618088722229004	-609.1626586914062	1624.752197265625	-146.120849609375	-623.7504272460938	1633.542846679688	-16.27528762817383	-756.34619140625	1643.172119140625	-184.1509399414062	-732.859619140625	855.0552368164062	-248.7355651855469	-925.5160522460938	857.2005004882812	103.9943771362305	-810.4825439453125	905.1936645507812	82.08375549316406	-683.7706298828125	896.7123413085938	-137.0807189941406	-727.3773803710938	435.8309631347656	-164.2077789306641	-698.9669799804688	589.3214111328125	-191.1892395019531	-866.568115234375	41.02789306640625	-193.5920715332031	-755.4602661132812	281.9803161621094	-178.0130615234375	-695.224609375	43.91540145874023	-21.04267501831055	-775.8343505859375	50.24727249145508	-31.52680206298828	-723.0645141601562	45.99563980102539	-132.0076599121094	-935.7045288085938	51.24224090576172	-156.452392578125	-785.6121215820312	502.0515747070312	193.9672393798828	-859.0814819335938	746.880859375	162.3337249755859	-979.632080078125	111.2614898681641	90.67441558837891	-833.8674926757812	362.5917358398438	181.9319152832031	-780.007080078125	54.81084442138672	154.1515045166016	-809.3745727539062	79.94508361816406	90.94833374023438	-884.2943725585938	58.82009506225586	164.8386840820312	-1008.237060546875	137.5179443359375	21.08887672424316	
